<?xml version="1.0" standalone="no"?>
<!DOCTYPE svg PUBLIC "-//W3C//DTD SVG 20010904//EN"
 "http://www.w3.org/TR/2001/REC-SVG-20010904/DTD/svg10.dtd">
<svg version="1.0" xmlns="http://www.w3.org/2000/svg"
 width="700.000000pt" height="700.000000pt" viewBox="0 0 700.000000 700.000000"
 preserveAspectRatio="xMidYMid meet">
<metadata>
Created by potrace 1.11, written by Peter Selinger 2001-2013
</metadata>
<g transform="translate(0.000000,700.000000) scale(0.100000,-0.100000)"
fill="#000000" stroke="none">
<path d="M0 5465 c0 -844 4 -1535 8 -1535 4 0 16 -13 25 -30 22 -37 44 -39 53
-5 8 33 22 32 29 -2 9 -43 20 -58 44 -61 17 -3 21 2 21 21 0 39 10 58 37 68
14 5 27 18 30 29 6 24 19 26 27 5 14 -37 25 -10 22 56 -2 40 0 65 5 57 5 -7 9
-39 9 -70 0 -64 16 -84 38 -49 15 22 15 21 31 -24 9 -26 21 -47 26 -48 6 -1
12 101 15 278 l5 280 3 -287 c2 -238 4 -286 16 -282 9 3 15 -5 20 -26 7 -38
37 -38 47 0 5 21 7 23 14 8 8 -20 35 -24 35 -6 0 6 13 -1 29 -16 17 -16 36
-26 44 -23 7 3 19 -4 25 -14 19 -30 79 -26 94 6 l11 24 38 -19 c21 -11 42 -28
48 -37 9 -16 13 -16 32 -4 17 10 24 11 27 2 2 -6 11 -19 20 -27 14 -15 17 -15
27 -1 10 13 17 12 61 -15 281 -176 707 -192 1013 -39 91 46 212 139 265 204
23 28 43 44 52 40 14 -5 16 -2 30 52 7 27 9 25 14 -25 5 -53 6 -55 38 -58 26
-3 32 -7 32 -28 0 -28 15 -32 29 -6 9 14 10 11 11 -16 0 -25 8 -42 31 -63 17
-16 35 -29 39 -29 4 0 10 -9 13 -21 5 -17 11 -20 35 -14 17 3 33 2 36 -4 4 -6
13 -8 20 -5 10 4 14 -18 19 -93 4 -54 7 -115 7 -135 l0 -38 -260 0 -260 0 0
-200 c0 -171 -2 -200 -15 -200 -9 0 -15 9 -15 24 0 14 -5 28 -10 31 -10 6 -14
-1 -24 -45 -6 -28 -46 -37 -46 -11 0 11 -3 11 -18 -2 -10 -10 -23 -17 -29 -17
-11 0 -43 -133 -43 -183 0 -18 -5 -39 -11 -47 -7 -11 -9 -2 -7 34 2 47 1 50
-24 53 -15 2 -29 -1 -32 -6 -3 -5 -14 -7 -24 -5 -12 4 -21 -4 -30 -28 -8 -18
-16 -27 -19 -20 -9 24 -23 11 -23 -22 0 -18 -7 -39 -15 -46 -8 -7 -15 -29 -15
-50 0 -29 -6 -41 -24 -54 -14 -8 -27 -28 -29 -43 -3 -23 -4 -21 -6 10 0 20 -3
37 -6 37 -14 0 -54 -57 -55 -77 0 -13 -4 -23 -10 -23 -5 0 -10 -15 -10 -34 0
-35 -13 -55 -25 -36 -15 25 -25 5 -25 -50 0 -52 -2 -60 -19 -60 -10 0 -22 -10
-26 -22 -6 -17 -9 -8 -14 39 -3 34 -9 64 -12 67 -3 4 -10 -26 -14 -66 -4 -40
-11 -98 -14 -128 l-7 -55 -8 38 c-13 59 -25 26 -27 -68 -1 -70 -2 -75 -10 -40
-4 22 -8 59 -8 83 -1 28 -5 42 -14 42 -12 0 -22 -30 -41 -125 -2 -11 -4 3 -5
30 -2 97 -14 186 -23 177 -5 -5 -12 -118 -15 -251 -5 -207 -9 -244 -23 -261
-16 -19 -17 -17 -23 48 -4 37 -7 89 -7 115 0 30 -4 46 -10 42 -6 -4 -10 -81
-10 -198 0 -202 -15 -250 -22 -70 -5 139 -23 154 -35 31 l-10 -93 -2 90 c-5
188 -41 136 -41 -60 0 -144 -18 -128 -27 24 -4 72 -11 117 -19 126 -17 17 -25
282 -28 900 -1 253 -5 467 -9 475 -12 26 -71 52 -108 48 -24 -2 -37 -10 -46
-28 -7 -14 -13 -19 -13 -12 0 23 -18 12 -29 -18 -12 -36 -31 -40 -31 -7 0 13
-7 32 -15 43 -15 19 -15 19 -30 0 -8 -11 -21 -16 -30 -13 -21 9 -45 -2 -45
-21 0 -13 -2 -12 -14 3 -12 17 -18 18 -70 6 -32 -7 -61 -20 -69 -31 -9 -12
-24 -18 -46 -17 -30 2 -35 -2 -46 -32 -7 -22 -14 -30 -19 -23 -14 23 -43 13
-49 -17 -4 -21 -15 -32 -37 -39 -16 -6 -30 -17 -30 -25 0 -22 -44 -57 -73 -57
-24 0 -27 4 -27 38 -1 47 -15 111 -29 125 -7 7 -18 7 -36 -1 -23 -11 -25 -17
-25 -79 0 -125 -23 -114 -37 17 -7 67 -18 84 -32 48 -6 -13 -10 -17 -10 -10
-2 26 -28 10 -41 -25 -14 -37 -15 -32 -20 112 -3 83 -7 -614 -8 -1547 l-2
-1698 3500 0 3500 0 -2 1633 c-1 897 -4 1601 -5 1563 -4 -63 -7 -71 -38 -101
-19 -18 -38 -46 -41 -64 -7 -36 -19 -40 -27 -10 -5 17 -11 20 -30 15 -22 -5
-25 -2 -30 36 -3 24 -11 44 -18 47 -7 2 -25 17 -40 34 -26 29 -27 29 -38 9 -6
-11 -11 -29 -11 -38 0 -16 -1 -16 -15 2 -15 19 -15 19 -27 -1 -12 -19 -12 -19
-18 4 -10 41 -30 37 -30 -6 0 -21 -9 -51 -20 -68 -18 -28 -20 -28 -20 -7 0 12
-6 22 -14 22 -19 0 -86 -95 -86 -123 0 -12 -7 -31 -15 -41 -8 -11 -15 -36 -15
-55 0 -24 -3 -31 -9 -22 -7 10 -13 11 -30 2 -22 -12 -26 -35 -22 -146 1 -35
-1 -45 -8 -35 -12 19 -17 82 -8 97 8 13 -1 43 -13 43 -12 0 -20 -40 -20 -107
0 -47 -4 -63 -14 -63 -16 0 -26 -21 -26 -58 l0 -27 -20 25 c-17 22 -19 23 -25
7 -4 -9 -15 -17 -25 -17 -20 0 -29 -38 -31 -140 -1 -36 -4 -49 -6 -30 -8 84
-15 120 -23 120 -5 0 -10 -8 -13 -18 -2 -9 -7 11 -12 46 -4 34 -11 62 -15 62
-14 0 -20 -64 -22 -254 -2 -188 -2 -189 -7 -61 -6 128 -13 161 -32 149 -6 -3
-9 -167 -9 -417 1 -529 1 -485 -10 -467 -17 27 -23 -15 -18 -121 3 -55 1 -102
-4 -105 -4 -3 -8 198 -8 445 0 377 -2 451 -14 451 -7 0 -16 11 -18 24 -3 13
-3 335 0 714 l5 689 46 17 c69 25 163 89 220 152 78 86 139 230 142 339 1 41
3 38 14 -28 5 -32 9 -36 21 -27 8 7 14 19 14 27 0 8 4 11 10 8 6 -3 10 -22 10
-41 0 -27 4 -34 20 -34 14 0 20 -7 20 -24 0 -30 20 -86 30 -86 5 0 13 19 18
43 l9 42 7 -70 c10 -94 14 -105 30 -83 7 10 28 19 46 20 27 2 36 -2 46 -20 6
-13 17 -29 22 -34 18 -18 42 10 43 51 1 30 3 27 9 -18 8 -53 23 -81 37 -67 4
4 9 49 11 101 4 86 6 95 24 95 14 0 25 -14 40 -50 11 -27 24 -50 28 -50 4 0
11 17 15 38 4 20 10 42 15 47 4 6 10 19 13 30 2 11 5 -12 6 -50 0 -39 5 -75
11 -81 5 -5 11 -75 13 -154 1 -80 4 623 5 1563 l2 1707 -3500 0 -3500 0 0
-1535z m2887 963 c-2 -13 -4 -5 -4 17 -1 22 1 32 4 23 2 -10 2 -28 0 -40z
m151 -390 c-2 -247 -6 -224 -10 60 -2 94 0 172 5 172 4 0 6 -105 5 -232z
m-111 -71 c-2 -23 -3 -1 -3 48 0 50 1 68 3 42 2 -26 2 -67 0 -90z m-1142 -171
c205 -44 374 -143 502 -296 181 -216 262 -487 250 -845 -12 -360 -104 -597
-312 -800 -122 -119 -266 -196 -435 -232 -126 -27 -364 -24 -484 5 -384 95
-633 379 -713 816 -21 112 -23 395 -4 511 78 478 380 795 816 854 92 13 292 6
380 -13z m4135 -1 c95 -16 266 -56 314 -75 26 -9 26 -10 26 -135 0 -74 -4
-125 -10 -125 -5 0 -35 11 -65 25 -365 161 -782 151 -935 -23 -106 -120 -109
-334 -6 -437 59 -59 158 -95 401 -145 110 -22 236 -52 280 -66 259 -84 409
-233 450 -449 61 -320 -75 -585 -355 -693 -186 -71 -453 -89 -705 -48 -96 16
-319 75 -379 100 l-36 15 0 130 c0 83 4 131 10 131 6 0 37 -13 70 -30 91 -46
199 -87 307 -115 134 -36 350 -46 473 -21 200 41 313 144 340 309 20 127 -15
242 -95 315 -80 75 -161 106 -409 157 -217 46 -313 75 -414 125 -196 98 -282
244 -282 475 0 177 43 289 155 400 105 106 243 169 427 195 85 12 322 4 438
-15z m-1920 -39 c164 -37 314 -135 372 -243 48 -89 61 -154 56 -287 -6 -148
-28 -213 -100 -292 -53 -57 -141 -108 -208 -119 -22 -4 -40 -12 -40 -18 0 -7
33 -22 74 -34 173 -53 305 -192 351 -370 20 -75 19 -242 0 -318 -50 -195 -199
-336 -417 -395 -119 -32 -258 -40 -674 -40 l-394 0 0 1071 0 1070 453 -4 c379
-3 464 -7 527 -21z m-1023 -48 c-2 -13 -4 -5 -4 17 -1 22 1 32 4 23 2 -10 2
-28 0 -40z m3094 -573 c0 -186 -2 -340 -4 -342 -2 -2 -12 -1 -21 3 -14 5 -16
36 -16 294 0 170 4 291 9 295 6 3 13 26 17 51 3 25 8 43 11 41 2 -3 4 -157 4
-342z m141 -72 c-1 -164 -4 -314 -6 -333 -1 -19 -3 115 -4 298 -1 182 1 332 6
332 4 0 6 -134 4 -297z m-5855 -595 c-2 -13 -4 -5 -4 17 -1 22 1 32 4 23 2
-10 2 -28 0 -40z m6335 -90 c-4 -229 -8 -247 -10 -45 -1 103 1 187 6 187 4 0
6 -64 4 -142z m-626 -75 c12 -45 15 -82 11 -128 -6 -66 -38 -155 -63 -176 -12
-10 -14 22 -14 207 l1 219 24 -29 c13 -17 31 -58 41 -93z m-1239 55 c-3 -8 -6
-5 -6 6 -1 11 2 17 5 13 3 -3 4 -12 1 -19z m40 -111 c-2 -23 -3 -1 -3 48 0 50
1 68 3 42 2 -26 2 -67 0 -90z m200 101 c-3 -7 -5 -2 -5 12 0 14 2 19 5 13 2
-7 2 -19 0 -25z m30 -15 c-3 -10 -5 -2 -5 17 0 19 2 27 5 18 2 -10 2 -26 0
-35z m540 -185 c-1 -40 -3 -10 -3 67 0 77 1 110 3 73 2 -37 2 -100 0 -140z
m41 105 c-1 -101 -5 -89 -10 30 -2 37 0 67 5 67 4 0 6 -44 5 -97z m1079 0 c-2
-21 -4 -6 -4 32 0 39 2 55 4 38 2 -18 2 -50 0 -70z m-6700 -65 c-2 -24 -4 -5
-4 42 0 47 2 66 4 43 2 -24 2 -62 0 -85z m2688 20 c7 -91 16 -108 33 -60 9 24
11 24 11 5 1 -12 9 -26 18 -31 12 -7 18 -27 20 -73 4 -66 28 -129 49 -129 7 0
15 -18 19 -40 7 -41 21 -52 31 -25 4 8 14 15 23 15 9 0 22 5 29 12 9 9 12 -19
12 -126 l0 -137 508 4 c490 3 510 4 587 26 170 48 299 135 377 253 23 36 25
36 40 18 17 -19 56 -17 70 4 4 6 8 -2 8 -17 0 -26 2 -28 29 -22 28 6 29 4 35
-39 4 -26 11 -46 16 -46 4 0 17 15 29 33 l21 32 0 -36 c0 -19 6 -43 13 -53 12
-16 14 -16 42 5 19 16 30 19 33 11 5 -17 37 -15 52 3 18 21 30 2 30 -46 l0
-36 133 -41 c259 -82 464 -109 691 -92 73 5 165 18 206 29 l73 18 -7 -105 c-3
-58 -6 -135 -6 -171 -1 -51 -3 -62 -11 -48 -8 14 -14 16 -25 6 -8 -7 -30 -9
-53 -6 -31 4 -44 1 -57 -14 -16 -17 -19 -18 -26 -4 -11 19 -42 19 -61 0 -13
-13 -16 -11 -21 11 -6 21 -10 24 -21 14 -8 -6 -23 -9 -35 -5 -12 4 -27 1 -35
-5 -9 -7 -30 -9 -60 -5 -45 7 -105 -8 -105 -26 0 -5 -9 -9 -19 -9 -11 0 -23
-4 -26 -10 -3 -5 -19 -10 -35 -10 -23 0 -30 -6 -39 -31 -6 -18 -11 -45 -11
-62 0 -23 -3 -27 -13 -18 -17 14 -27 4 -27 -25 0 -16 -5 -21 -18 -17 -20 5
-47 -21 -55 -52 -3 -13 -5 -9 -6 12 -1 21 -8 36 -21 43 -17 9 -20 21 -20 83 0
86 -8 102 -45 95 -19 -4 -33 0 -46 13 -23 23 -33 24 -54 2 -13 -13 -18 -14
-25 -3 -5 8 -13 9 -21 4 -26 -16 -62 -20 -151 -16 l-48 2 0 85 0 85 -162 -2
-163 -3 -3 -252 -2 -253 -29 -14 c-29 -16 -41 -50 -41 -123 0 -17 -4 -35 -10
-38 -6 -4 -10 29 -10 93 0 54 -3 161 -7 236 l-6 137 -29 15 c-27 14 -33 14
-74 -5 -24 -12 -49 -30 -56 -41 -9 -14 -16 -16 -25 -8 -9 7 -17 7 -28 -2 -12
-10 -15 -9 -15 4 0 9 -8 19 -17 23 -10 3 -25 12 -34 20 -13 11 -21 10 -50 -4
-19 -9 -41 -26 -50 -37 -15 -18 -22 -19 -66 -10 -69 14 -97 5 -102 -31 -5 -28
-5 -28 -10 9 -6 40 -31 63 -31 28 0 -34 -12 -32 -64 14 -28 24 -100 69 -161
99 -178 88 -367 129 -657 141 l-158 7 0 402 c0 449 9 577 25 363z m-228 -15
c-2 -21 -4 -6 -4 32 0 39 2 55 4 38 2 -18 2 -50 0 -70z m2890 55 c-3 -8 -6 -5
-6 6 -1 11 2 17 5 13 3 -3 4 -12 1 -19z m30 -10 c-3 -7 -5 -2 -5 12 0 14 2 19
5 13 2 -7 2 -19 0 -25z m-840 -15 c-3 -10 -5 -4 -5 12 0 17 2 24 5 18 2 -7 2
-21 0 -30z m1275 -55 c-5 -168 -8 -185 -10 -45 -1 75 1 137 6 137 4 0 6 -42 4
-92z m35 45 c-3 -10 -5 -2 -5 17 0 19 2 27 5 18 2 -10 2 -26 0 -35z m1050 -80
c-3 -10 -5 -2 -5 17 0 19 2 27 5 18 2 -10 2 -26 0 -35z m-1430 -105 c-2 -18
-4 -4 -4 32 0 36 2 50 4 33 2 -18 2 -48 0 -65z m230 40 c-3 -8 -6 -5 -6 6 -1
11 2 17 5 13 3 -3 4 -12 1 -19z m-490 -176 c-7 -1 -30 4 -52 12 -22 8 -33 15
-24 15 9 1 24 10 34 21 19 21 19 21 36 -12 12 -23 14 -34 6 -36z m53 3 c0 -8
-4 -15 -10 -15 -5 0 -7 7 -4 15 4 8 8 15 10 15 2 0 4 -7 4 -15z m-2145 -513
c482 -90 727 -325 802 -772 21 -128 21 -402 0 -532 -55 -325 -200 -537 -452
-662 -231 -115 -450 -146 -1032 -146 l-283 0 0 1071 0 1071 428 -5 c375 -4
440 -7 537 -25z m1575 -1020 c0 -661 -4 -1079 -10 -1132 -37 -301 -156 -462
-386 -524 -32 -9 -116 -19 -186 -23 l-128 -6 0 115 0 116 103 4 c90 3 110 7
162 33 98 49 142 127 164 288 7 52 11 429 11 1128 l0 1049 135 0 135 0 0
-1048z m1927 716 c-3 -8 -6 -5 -6 6 -1 11 2 17 5 13 3 -3 4 -12 1 -19z m43
-45 c-1 -24 -2 -26 -11 -10 -5 9 -7 22 -4 27 10 17 15 11 15 -17z m-1673 -190
c-2 -38 -3 -7 -3 67 0 74 1 105 3 68 2 -38 2 -98 0 -135z m-930 120 c-3 -10
-5 -4 -5 12 0 17 2 24 5 18 2 -7 2 -21 0 -30z m-3680 -135 c-2 -29 -3 -6 -3
52 0 58 1 81 3 53 2 -29 2 -77 0 -105z m4380 60 c-2 -13 -4 -5 -4 17 -1 22 1
32 4 23 2 -10 2 -28 0 -40z m820 -5 c-3 -10 -5 -2 -5 17 0 19 2 27 5 18 2 -10
2 -26 0 -35z m110 15 c-3 -8 -6 -5 -6 6 -1 11 2 17 5 13 3 -3 4 -12 1 -19z
m-1520 -120 c-2 -24 -4 -7 -4 37 0 44 2 63 4 43 2 -21 2 -57 0 -80z m1750 20
c-2 -13 -4 -5 -4 17 -1 22 1 32 4 23 2 -10 2 -28 0 -40z m-1700 -45 c-3 -10
-5 -2 -5 17 0 19 2 27 5 18 2 -10 2 -26 0 -35z m-3372 -171 c-11 -11 -12 6 -6
103 l6 100 3 -99 c1 -54 0 -101 -3 -104z m-588 66 c-2 -24 -4 -7 -4 37 0 44 2
63 4 43 2 -21 2 -57 0 -80z m6630 15 c-2 -16 -4 -5 -4 22 0 28 2 40 4 28 2
-13 2 -35 0 -50z m-6080 -60 c-2 -16 -4 -5 -4 22 0 28 2 40 4 28 2 -13 2 -35
0 -50z m-378 -10 c1 -7 -3 -13 -9 -13 -5 0 -10 17 -9 38 1 33 2 34 9 12 4 -14
8 -31 9 -37z m458 -105 c-2 -13 -4 -5 -4 17 -1 22 1 32 4 23 2 -10 2 -28 0
-40z m5935 22 c3 -16 1 -30 -4 -30 -4 0 -8 14 -8 30 0 17 2 30 4 30 2 0 6 -13
8 -30z m-605 -392 c-2 -29 -3 -6 -3 52 0 58 1 81 3 53 2 -29 2 -77 0 -105z
m-170 -465 c-3 -10 -5 -2 -5 17 0 19 2 27 5 18 2 -10 2 -26 0 -35z m-2810
-510 c-2 -32 -3 -8 -3 52 0 61 1 87 3 58 2 -29 2 -78 0 -110z m-464 -500 c3
-35 1 -63 -4 -63 -5 0 -9 30 -9 67 0 81 5 79 13 -4z"/>
<path d="M1378 5581 c-242 -65 -408 -253 -484 -546 -32 -122 -44 -376 -25
-518 45 -336 217 -582 466 -666 95 -33 291 -41 385 -17 123 31 206 79 296 170
70 71 90 100 132 187 102 210 131 457 91 749 -27 191 -105 356 -224 475 -91
92 -165 136 -281 165 -101 26 -261 26 -356 1z m-133 -414 c4 -21 18 -46 31
-56 20 -16 24 -28 24 -70 0 -37 4 -53 15 -57 9 -4 15 -19 15 -35 0 -50 28 -36
35 19 4 26 8 52 9 57 7 22 26 -74 26 -127 0 -32 4 -58 8 -58 5 0 18 9 30 20
18 17 22 32 22 85 0 36 4 65 8 65 4 0 15 -13 25 -29 12 -21 17 -51 17 -109 0
-44 3 -87 6 -96 13 -33 24 -14 24 42 0 31 5 64 10 72 7 10 10 -20 10 -95 0
-78 4 -116 14 -130 17 -25 26 -95 25 -204 0 -65 3 -82 13 -79 7 3 16 20 19 39
4 19 7 26 8 17 0 -10 7 -18 14 -18 31 -1 60 -76 59 -152 -1 -26 3 -38 11 -35
12 4 21 27 32 78 4 25 36 44 49 31 3 -3 6 -33 6 -67 0 -129 25 -212 32 -107 3
45 4 43 12 -26 10 -85 25 -90 43 -13 14 65 23 76 23 28 0 -24 7 -44 20 -57 22
-22 26 -18 33 35 4 26 4 25 6 -8 0 -21 8 -51 16 -68 15 -29 15 -30 -27 -69
-100 -93 -242 -142 -408 -143 -172 -1 -306 47 -416 147 l-55 51 -2 482 c-2
454 -1 483 16 483 13 0 17 9 17 43 2 233 37 504 41 312 2 -103 13 -204 22
-185 18 45 27 106 27 196 0 153 14 135 21 -28 4 -78 10 -160 14 -181z m925
-834 c0 -55 -5 -54 -14 5 -4 26 -2 42 4 42 5 0 10 -21 10 -47z"/>
<path d="M3290 5225 l0 -335 268 0 c191 0 286 4 333 14 183 39 269 141 269
321 0 136 -46 223 -149 278 -87 48 -158 57 -453 57 l-268 0 0 -335z"/>
<path d="M3290 4265 l0 -407 313 4 c285 4 318 6 377 26 177 58 255 173 255
377 -1 165 -44 262 -149 332 -92 63 -117 66 -473 71 l-323 3 0 -406z m720 105
l-6 -225 -2 221 c-1 121 1 224 5 227 3 4 7 6 7 5 1 -2 -1 -104 -4 -228z m37
153 c-2 -16 -4 -5 -4 22 0 28 2 40 4 28 2 -13 2 -35 0 -50z m84 -110 c-3 -120
-11 -119 -11 2 0 54 3 95 6 92 4 -4 6 -46 5 -94z m-525 -460 c15 -16 18 -16
27 -2 8 13 15 10 42 -20 28 -30 35 -33 49 -22 14 11 16 11 16 -3 0 -14 -14
-16 -100 -16 l-100 0 0 43 c0 24 3 47 6 50 8 8 36 -7 60 -30z m-246 -48 c0 -8
-4 -15 -10 -15 -5 0 -7 7 -4 15 4 8 8 15 10 15 2 0 4 -7 4 -15z"/>
<path d="M2480 2339 l0 -852 278 6 c222 4 295 9 367 25 256 56 402 161 496
357 65 134 83 236 83 470 0 213 -9 275 -57 408 -35 97 -83 171 -153 237 -165
154 -340 200 -766 200 l-248 0 0 -851z m462 821 c31 0 38 -4 38 -19 0 -15 -10
-20 -44 -25 -41 -6 -46 -10 -57 -44 -6 -20 -17 -44 -24 -52 -6 -8 -17 -35 -24
-60 -7 -25 -24 -65 -37 -90 -13 -25 -24 -51 -24 -59 0 -16 -39 -101 -46 -101
-2 0 -4 104 -4 231 l0 232 92 -7 c50 -3 108 -6 130 -6z m78 -20 c0 -11 -2 -20
-4 -20 -2 0 -6 9 -9 20 -3 11 -1 20 4 20 5 0 9 -9 9 -20z m160 -20 c0 -5 -4
-10 -10 -10 -5 0 -10 5 -10 10 0 6 5 10 10 10 6 0 10 -4 10 -10z m417 -963
c-1 -105 -2 -19 -2 193 0 212 1 298 2 192 2 -105 2 -279 0 -385z m-405 90 c2
-141 0 -257 -4 -257 -5 0 -7 147 -6 328 1 180 3 296 5 257 1 -38 4 -186 5
-328z m45 181 c-3 -7 -5 -2 -5 12 0 14 2 19 5 13 2 -7 2 -19 0 -25z m240 -690
c-2 -18 -4 -6 -4 27 0 33 2 48 4 33 2 -15 2 -42 0 -60z m-500 20 c-3 -8 -6 -5
-6 6 -1 11 2 17 5 13 3 -3 4 -12 1 -19z m320 -115 c-2 -27 -3 -5 -3 47 0 52 1
74 3 48 2 -27 2 -69 0 -95z"/>
</g>
</svg>
